<?xml version="1.0" encoding="UTF-8"?>
<!DOCTYPE svg PUBLIC "-//W3C//DTD SVG 1.1//EN" "http://www.w3.org/Graphics/SVG/1.1/DTD/svg11.dtd">
<svg xmlns="http://www.w3.org/2000/svg" version="1.1" width="40px" height="40px" style="shape-rendering:geometricPrecision; text-rendering:geometricPrecision; image-rendering:optimizeQuality; fill-rule:evenodd; clip-rule:evenodd" xmlns:xlink="http://www.w3.org/1999/xlink">
<g><path style="opacity:1" fill="#232829" d="M -0.5,-0.5 C 12.8333,-0.5 26.1667,-0.5 39.5,-0.5C 39.5,12.8333 39.5,26.1667 39.5,39.5C 26.1667,39.5 12.8333,39.5 -0.5,39.5C -0.5,26.1667 -0.5,12.8333 -0.5,-0.5 Z"/></g>
<g><path style="opacity:1" fill="#f0aa05" d="M 9.5,5.5 C 11.1667,5.5 12.8333,5.5 14.5,5.5C 14.3339,11.1764 14.5006,16.8431 15,22.5C 17.8333,19.6667 20.6667,16.8333 23.5,14C 25.8333,13.3333 28.1667,13.3333 30.5,14C 27.6511,17.0162 24.6511,19.8496 21.5,22.5C 24.7114,27.0891 28.0447,31.5891 31.5,36C 29.5,36.6667 27.5,36.6667 25.5,36C 22.9917,32.6619 20.325,29.4952 17.5,26.5C 16.8333,26.8333 16.1667,27.1667 15.5,27.5C 14.5159,30.4281 14.1826,33.4281 14.5,36.5C 12.8333,36.5 11.1667,36.5 9.5,36.5C 9.5,26.1667 9.5,15.8333 9.5,5.5 Z"/></g>
</svg>
